<?xml version="1.0" encoding="UTF-8"?>
<svg version="1.1" xmlns="http://www.w3.org/2000/svg" width="512" height="512">
<path d="M0 0 C1.00039307 0.27287842 1.00039307 0.27287842 2.02099609 0.55126953 C13.18214347 3.66348581 24.33336835 8.5555789 34 15 C33.34 17.64 32.68 20.28 32 23 C34.97 24.98 37.94 26.96 41 29 C45 27.5 45 27.5 46 25 C51.06627924 26.48952405 54.01954766 29.51924879 57.625 33.1875 C58.23746582 33.80753906 58.84993164 34.42757812 59.48095703 35.06640625 C76.24582183 52.42830419 87.80236868 73.74483671 93.4375 97.1875 C93.6015332 97.86981689 93.76556641 98.55213379 93.93457031 99.25512695 C94.92456371 103.73501321 95 107.27026192 95 112 C120.41 112 145.82 112 172 112 C175.37641215 122.12923644 175.37641215 122.12923644 176.49967957 126.44953918 C176.75622818 127.43114517 177.01277679 128.41275116 177.27709961 129.42410278 C177.54683594 130.46984467 177.81657227 131.51558655 178.09448242 132.59301758 C178.38752762 133.71978409 178.68057281 134.8465506 178.98249817 136.00746155 C181.68021652 146.40568563 184.33735866 156.8145006 186.980937 167.22661304 C188.92515334 174.88187881 190.89059538 182.53098912 192.8852703 190.17326623 C194.2975266 195.59211016 195.68319943 201.01737376 197.05102235 206.44760054 C197.86270815 209.66694402 198.68796349 212.88100705 199.5358181 216.09113503 C205.50604219 238.75524866 210.31618207 264.4443253 199.125 286.3125 C198.65320313 287.25738281 198.18140625 288.20226562 197.6953125 289.17578125 C196 292 196 292 193.43525696 294.59463501 C190.12130119 298.54945401 190.29041243 302.32372973 190.34057617 307.31005859 C190.33009247 308.22777039 190.31960876 309.14548218 190.30880737 310.09100342 C190.28011147 313.11049434 190.28634259 316.12883494 190.29296875 319.1484375 C190.27985044 321.2473799 190.26454581 323.34630967 190.24714661 325.44522095 C190.20729962 330.95915386 190.1971063 336.4727565 190.19311523 341.98681641 C190.18378332 347.61761492 190.14636933 353.24821942 190.11132812 358.87890625 C190.04675518 369.91926177 190.01351262 380.95947216 190 392 C187.36 392 184.72 392 182 392 C182 396.95 182 401.9 182 407 C184.64 407 187.28 407 190 407 C190 435.05 190 463.1 190 492 C197.59 492 205.18 492 213 492 C213 497.28 213 502.56 213 508 C48.66 508 -115.68 508 -285 508 C-285 502.72 -285 497.44 -285 492 C-277.41 492 -269.82 492 -262 492 C-261.96854345 466.86086234 -261.97406831 441.72203975 -262.02846622 416.58293247 C-262.05279611 404.91010622 -262.06411091 393.23753947 -262.04467773 381.56469727 C-262.02777083 371.38939116 -262.03539449 361.21444805 -262.07234758 351.03918976 C-262.09105712 345.65244751 -262.09756888 340.26631905 -262.07469368 334.87957954 C-262.0535359 329.80592916 -262.06525778 324.73340154 -262.10184479 319.65984917 C-262.10951776 317.80113611 -262.10533322 315.942329 -262.08818626 314.0836792 C-261.72994754 302.62946654 -261.72994754 302.62946654 -266.44871521 292.510849 C-267.61758633 291.32569327 -268.79918037 290.15277319 -270 289 C-271.70703125 285.99609375 -271.70703125 285.99609375 -272.8125 283.4375 C-273.19019531 282.59058594 -273.56789063 281.74367188 -273.95703125 280.87109375 C-282.09564616 258.46704146 -276.44662158 233.30930889 -270.53826904 211.11125803 C-269.61505692 207.61073042 -268.7339689 204.09958357 -267.84765625 200.58956909 C-266.17620133 193.99563276 -264.46910946 187.41152171 -262.74775696 180.83045661 C-260.41446345 171.90091605 -258.13903811 162.95664358 -255.85968018 154.01321602 C-252.28579021 139.99662857 -248.63716616 126.00065412 -245 112 C-219.26 112 -193.52 112 -167 112 C-167 109.69 -167 107.38 -167 105 C-166.53438292 102.28298738 -166.02138643 99.67111055 -165.375 97 C-165.19606201 96.25943359 -165.01712402 95.51886719 -164.83276367 94.75585938 C-156.16086439 60.49253061 -133.17438766 31.03058502 -103 13 C-72.25921718 -4.72587402 -34.25127574 -9.75059709 0 0 Z " fill="#020201" transform="translate(292,4)"/>
<path d="M0 0 C1.19367188 0.42925781 2.38734375 0.85851562 3.6171875 1.30078125 C10.37946675 3.94202773 16.7078886 7.39566059 23 11 C23.268125 10.21625 23.53625 9.4325 23.8125 8.625 C25 6 25 6 28 4 C33.445 7.96 33.445 7.96 39 12 C37.74646003 15.13384992 36.53924548 18.03145514 35 21 C35.55558594 21.23332031 36.11117187 21.46664062 36.68359375 21.70703125 C56.49183681 32.76357164 68.54309353 60.27518876 74.4453125 80.95117188 C82.40768236 110.36147462 76.61286767 143.12318279 61.6875 169.3203125 C49.95846988 187.94557792 34.94734609 202.07848522 16 213 C15.67 213 15.34 213 15 213 C15 192.54 15 172.08 15 151 C18.96 149.68 22.92 148.36 27 147 C36.19778438 141.80770237 40.92905934 132.90575217 44 123 C48.21418807 104.37328871 45.49921539 83.3398181 35.91015625 66.91015625 C30.20219928 58.21398459 24.09770068 52.42464742 13.96484375 49.390625 C6.12929761 47.83286235 -1.22287813 49.22446551 -8.09765625 53.21875 C-19.20694303 60.92461367 -26.23503891 73.92927484 -29 87 C-31.24807374 103.089899 -32.10891011 121.70912925 -23.25 136.0625 C-16.95064151 144.36115111 -10.21223569 148.95755286 0 151 C0 173.77 0 196.54 0 220 C-14.0329975 223.89805486 -23.78057633 226.18025161 -37.625 226.1875 C-38.83285156 226.19974609 -40.04070312 226.21199219 -41.28515625 226.22460938 C-51.38039748 226.24090955 -60.8507525 224.9535125 -70.625 222.4375 C-71.60726562 222.18871094 -72.58953125 221.93992188 -73.6015625 221.68359375 C-76 221 -76 221 -78 220 C-78 193.93 -78 167.86 -78 141 C-74.37 140.67 -70.74 140.34 -67 140 C-58.48901194 136.07185167 -53.21959947 131.52277354 -49.08071899 123.05328369 C-47.00935831 117.20120575 -47.27272502 111.16260883 -47.29296875 105.0234375 C-47.27982644 103.60281275 -47.26451452 102.18220658 -47.24714661 100.7616272 C-47.20757842 97.0561115 -47.19712465 93.3510877 -47.19311523 89.64538574 C-47.18372998 85.85068097 -47.14628338 82.05625887 -47.11132812 78.26171875 C-47.04703977 70.84109268 -47.01616412 63.42091555 -47 56 C-51.95 56 -56.9 56 -62 56 C-62 63.59 -62 71.18 -62 79 C-67.28 79 -72.56 79 -78 79 C-78 71.41 -78 63.82 -78 56 C-82.95 56 -87.9 56 -93 56 C-93 63.59 -93 71.18 -93 79 C-98.28 79 -103.56 79 -109 79 C-109 71.41 -109 63.82 -109 56 C-113.95 56 -118.9 56 -124 56 C-124.00488922 64.28547676 -123.98414066 72.56972093 -123.9197216 80.85490894 C-123.89079471 84.70315856 -123.87258763 88.55080499 -123.87988281 92.39916992 C-123.88652777 96.12143056 -123.86370342 99.84250475 -123.82144547 103.56451988 C-123.81040499 104.97604835 -123.80953134 106.38769849 -123.81957626 107.79923439 C-123.87835657 117.2841114 -122.66324365 124.22925572 -117 132 C-114.5021394 134.58841995 -114.5021394 134.58841995 -111.8125 136.125 C-110.97332031 136.66382813 -110.13414062 137.20265625 -109.26953125 137.7578125 C-103.66162629 140.82719938 -100.22406304 140.343267 -93 141 C-93 164.76 -93 188.52 -93 213 C-97.37635262 211.24945895 -100.79481353 209.28081136 -104.5625 206.5625 C-105.17383789 206.12147949 -105.78517578 205.68045898 -106.41503906 205.22607422 C-132.23718982 186.24391834 -148.57090615 159.49425217 -154.54638672 128.13232422 C-158.91013964 97.99941252 -152.10061435 66.99515297 -134.36328125 42.203125 C-116.01572523 17.70011081 -89.29304273 -0.55553258 -58.7121582 -5.53540039 C-38.87979535 -8.01754354 -18.77166592 -6.98708893 0 0 Z " fill="#FBE75C" transform="translate(295,22)"/>
<path d="M0 0 C35.97 0 71.94 0 109 0 C109 48.84 109 97.68 109 148 C73.03 148 37.06 148 0 148 C0 99.16 0 50.32 0 0 Z " fill="#FDE75C" transform="translate(201,348)"/>
<path d="M0 0 C46.2 0 92.4 0 140 0 C140 28.71 140 57.42 140 87 C93.8 87 47.6 87 0 87 C0 58.29 0 29.58 0 0 Z " fill="#8AD8F6" transform="translate(46,348)"/>
<path d="M0 0 C46.2 0 92.4 0 140 0 C140 15.84 140 31.68 140 48 C142.64 48 145.28 48 148 48 C148 53.28 148 58.56 148 64 C145.03 64 142.06 64 139 64 C139 71.26 139 78.52 139 86 C93.13 86 47.26 86 0 86 C0 57.62 0 29.24 0 0 Z " fill="#89D7F5" transform="translate(326,348)"/>
<path d="M0 0 C3.4088837 1.13629457 3.7566282 1.75912151 5.6875 4.625 C11.90480222 13.13768763 19.38039041 17.85036449 29 22 C29.79019531 22.34289062 30.58039063 22.68578125 31.39453125 23.0390625 C44.56234332 27.83959365 58.53465687 25.4905153 71 20 C80.7481394 15.11938792 87.81573259 8.92527971 94 0 C98.50843825 4.37181891 98.50843825 4.37181891 100.43359375 6.83203125 C108.52881465 17.06713598 121.0489018 23.70450609 133.98535156 25.23486328 C150.42116471 26.61670331 164.88276319 21.44676171 177.75 11.125 C181.40537536 7.86034172 184.21846474 4.0143769 187 0 C189.62361607 2.54865561 191.96674157 4.95628892 194.1875 7.875 C201.47806753 16.70998681 214.61317779 23.62036796 226 25 C233.90363118 25.44117656 241.40970886 25.34584486 249 23 C250.28970703 22.63261719 250.28970703 22.63261719 251.60546875 22.2578125 C261.79059135 19.01121489 269.85128432 13.03329208 276.5625 4.76171875 C277.95172701 3.05916064 279.4216795 1.52664929 281 0 C281.67804688 0.78503906 282.35609375 1.57007813 283.0546875 2.37890625 C293.59620799 14.36745182 305.86579139 24.14342118 322.4140625 25.22265625 C330.79362596 25.41891894 337.99045926 24.3351078 346 22 C347.65 21.67 349.3 21.34 351 21 C351 27.27 351 33.54 351 40 C212.4 40 73.8 40 -69 40 C-69 33.73 -69 27.46 -69 21 C-66.89471355 21.52632161 -64.78989485 22.06979397 -62.73046875 22.75390625 C-48.46632923 27.28950822 -34.32066511 25.54116489 -20.875 19.375 C-12.1292837 14.75570292 -5.30448393 8.31035815 0 0 Z " fill="#EE5374" transform="translate(115,293)"/>
<path d="M0 0 C20.79 0 41.58 0 63 0 C59.39181022 36.38258033 55.1829637 72.67793191 51 109 C25.26 109 -0.48 109 -27 109 C-25.70695089 101.8882299 -24.34780719 94.95645775 -22.58569336 87.97045898 C-22.35292191 87.0357225 -22.12015045 86.10098602 -21.88032532 85.13792419 C-21.1202918 82.08977097 -20.35521584 79.04291047 -19.58984375 75.99609375 C-19.05677126 73.86432306 -18.52394336 71.7324912 -17.99134827 69.6006012 C-16.87983625 65.15464242 -15.76591182 60.70929751 -14.65014648 56.2644043 C-13.2180703 50.55890562 -11.79127001 44.85210349 -10.36614132 39.14486599 C-9.26903073 34.75309028 -8.16958147 30.3619028 -7.06936836 25.9709034 C-6.54204043 23.86544582 -6.01534981 21.75982852 -5.48930168 19.65405083 C-4.75682532 16.72377614 -4.02130795 13.79428201 -3.28491211 10.86499023 C-3.06723175 9.99179138 -2.84955139 9.11859253 -2.62527466 8.21893311 C-1.11437836 2.22875671 -1.11437836 2.22875671 0 0 Z " fill="#B5E5F8" transform="translate(60,132)"/>
<path d="M0 0 C20.79 0 41.58 0 63 0 C69.73827997 26.91301106 69.73827997 26.91301106 72.59765625 38.34179688 C74.55254484 46.15536192 76.50766041 53.96886954 78.46435547 61.78198242 C80.04099771 68.0775439 81.61642144 74.37340954 83.19108582 80.66946602 C83.79354582 83.07745124 84.39642153 85.4853325 84.99971008 87.89311028 C85.84138598 91.25260734 86.68161362 94.61246338 87.52148438 97.97241211 C87.90018929 99.48183884 87.90018929 99.48183884 88.2865448 101.02175903 C88.51372696 101.93186234 88.74090912 102.84196564 88.97497559 103.77964783 C89.17408287 104.57515517 89.37319016 105.37066252 89.57833099 106.19027615 C90 108 90 108 90 109 C64.26 109 38.52 109 12 109 C8.5578867 86.052578 8.5578867 86.052578 7.5 75.45703125 C7.37818359 74.27944748 7.25636719 73.10186371 7.13085938 71.88859558 C6.74956843 68.19699352 6.37432478 64.5048143 6 60.8125 C5.50279596 55.94372007 5.00242897 51.07527464 4.5 46.20703125 C4.37842529 45.02279572 4.25685059 43.83856018 4.1315918 42.61843872 C3.17524356 33.4102729 2.09472777 24.22016328 0.9140625 15.03804016 C0.79417969 14.08149033 0.67429687 13.12494049 0.55078125 12.1394043 C0.44419189 11.31208298 0.33760254 10.48476166 0.2277832 9.63237 C-0.04909463 6.43263937 0 3.21168763 0 0 Z " fill="#B5E5F9" transform="translate(389,132)"/>
<path d="M0 0 C46.2 0 92.4 0 140 0 C140 15.51 140 31.02 140 47 C93.8 47 47.6 47 0 47 C0 31.49 0 15.98 0 0 Z " fill="#EF5374" transform="translate(326,450)"/>
<path d="M0 0 C46.2 0 92.4 0 140 0 C140 15.51 140 31.02 140 47 C93.8 47 47.6 47 0 47 C0 31.49 0 15.98 0 0 Z " fill="#EC5273" transform="translate(46,450)"/>
<path d="M0 0 C2.70814205 2.70814205 3.99522205 5.96091992 5.625 9.375 C19.37774473 37.43663197 41.19471446 57.40179466 69 71 C69.70041303 85.73980304 69.02217034 98.18723283 59.01171875 110 C50.40887672 118.55272839 41.7046841 122.23938637 29.6875 122.5 C18.14492872 122.42705719 9.53655774 118.57746727 1.1953125 110.53125 C-8.13500887 99.77315703 -9 90.14973575 -9 76 C3.87 76 16.74 76 30 76 C30 70.72 30 65.44 30 60 C18.12 60 6.24 60 -6 60 C-4.85002975 40.45050573 -4.85002975 40.45050573 -4.0625 33.7109375 C-3.93500366 32.57333481 -3.93500366 32.57333481 -3.80493164 31.41275024 C-3.54081332 29.06633543 -3.27045027 26.72069228 -3 24.375 C-2.81992324 22.77738758 -2.64023459 21.17973136 -2.4609375 19.58203125 C-2.28680335 18.04162763 -2.11233673 16.50126154 -1.9375 14.9609375 C-1.85830322 14.26294037 -1.77910645 13.56494324 -1.69750977 12.84579468 C-1.20195843 8.55151473 -0.62867849 4.27626552 0 0 Z " fill="#FCFCFC" transform="translate(133,181)"/>
<path d="M0 0 C35.97 0 71.94 0 109 0 C109 48.84 109 97.68 109 148 C73.03 148 37.06 148 0 148 C0 99.16 0 50.32 0 0 Z M1 1 C1 45.55 1 90.1 1 136 C32.35 136 63.7 136 96 136 C96 91.45 96 46.9 96 1 C64.65 1 33.3 1 1 1 Z " fill="#F1A840" transform="translate(201,348)"/>
<path d="M0 0 C25.74 0 51.48 0 78 0 C78 15.55249588 76.6301244 24.93362756 66.22265625 35.8671875 C57.6590386 44.02801741 48.84465822 46.79065832 37.21313477 46.73901367 C26.98759522 46.2649417 18.6527676 41.72045074 11 35 C8.70483085 32.17559184 6.85660557 29.1266462 5 26 C4.38898438 25.01580078 4.38898438 25.01580078 3.765625 24.01171875 C-0.52492349 16.005804 0.58576656 9.95803154 0 0 Z " fill="#B5E5F9" transform="translate(403,257)"/>
<path d="M0 0 C25.41 0 50.82 0 77 0 C77 16.0436548 76.23279243 24.66048771 65.46484375 35.8046875 C56.0594792 44.1815732 46.39123578 46.62527211 33.94921875 46.3125 C23.40478421 45.47812338 15.48631843 39.82711311 8.3125 32.375 C-0.07042687 22.18474486 0 13.58867706 0 0 Z " fill="#B5E5F9" transform="translate(31,257)"/>
<path d="M0 0 C25.08 0 50.16 0 76 0 C78.51841287 10.0736515 76.57340904 18.45046643 71.64453125 27.484375 C65.51994839 37.27057175 57.05119336 42.91041906 46 46 C33.52236302 47.06035255 24.13780759 45.96508203 13.8125 38.4375 C6.41233546 32.1910619 2.63750666 25.2312733 0 16 C0 10.72 0 5.44 0 0 Z " fill="#FDFDFD" transform="translate(311,257)"/>
<path d="M0 0 C8.21768947 4.03131936 12.74348233 11.74120262 16 20 C20.30290816 34.02302339 21.21476582 49.40040442 15 63 C12.19263006 67.30763874 8.80528071 70.1552334 4 72 C1.11936989 72.52462033 -1.64110975 72.56232299 -4.5625 72.5 C-5.65594727 72.52320313 -5.65594727 72.52320313 -6.77148438 72.546875 C-11.9526704 72.50956673 -14.87487213 71.35014083 -19 68 C-27.59576379 59.00443324 -28.38349299 48.9827669 -28.27734375 37.046875 C-27.67574838 24.63186215 -23.07739412 11.72887995 -14.25 2.8125 C-9.75396704 -0.77054542 -5.5472978 -1.1653987 0 0 Z " fill="#FCFCFC" transform="translate(307,86)"/>
<path d="M0 0 C1.2065625 0.27714844 2.413125 0.55429687 3.65625 0.83984375 C5.27078763 1.20593077 6.88537357 1.57180483 8.5 1.9375 C9.29148438 2.11990234 10.08296875 2.30230469 10.8984375 2.49023438 C33.38565003 7.55907327 55.78503516 5.06420171 78 0 C78.45508218 13.75359474 75.5119921 24.93032272 65.87890625 35.25 C62.8467358 38.07414213 59.70166003 40.15266872 56 42 C55.36964844 42.3196875 54.73929687 42.639375 54.08984375 42.96875 C44.91479306 46.78726821 32.80550017 46.51369774 23.5625 43.0625 C11.78868591 37.29672273 5.46174353 28.49700685 0.625 16.625 C-0.32874491 11.09327955 -0.15152633 5.59805614 0 0 Z " fill="#B3E3F7" transform="translate(217,258)"/>
<path d="M0 0 C7.3777421 2.72064242 14.17292585 6.10623147 21 10 C21.268125 9.21625 21.53625 8.4325 21.8125 7.625 C23 5 23 5 26 3 C29.63 5.64 33.26 8.28 37 11 C35.74646003 14.13384992 34.53924548 17.03145514 33 20 C33.55558594 20.23332031 34.11117187 20.46664062 34.68359375 20.70703125 C54.49183681 31.76357164 66.54309353 59.27518876 72.4453125 79.95117188 C80.40768236 109.36147462 74.61286767 142.12318279 59.6875 168.3203125 C47.95846988 186.94557792 32.94734609 201.07848522 14 212 C13.67 212 13.34 212 13 212 C13 191.54 13 171.08 13 150 C13.33 150 13.66 150 14 150 C14.33 168.48 14.66 186.96 15 206 C39.72934133 184.36182633 58.46547365 156.63598078 61 123 C62.34841535 98.40651402 60.37522018 76.23592696 49 54 C48.65420898 53.32066406 48.30841797 52.64132813 47.95214844 51.94140625 C37.52395969 31.77961558 20.9709719 11.83327869 0 2 C0 1.34 0 0.68 0 0 Z " fill="#F7AB41" transform="translate(297,23)"/>
<path d="M0 0 C46.2 0 92.4 0 140 0 C140 28.71 140 57.42 140 87 C93.8 87 47.6 87 0 87 C0 58.29 0 29.58 0 0 Z M1 1 C1 29.05 1 57.1 1 86 C42.58 86 84.16 86 127 86 C127 57.95 127 29.9 127 1 C85.42 1 43.84 1 1 1 Z " fill="#119CCE" transform="translate(46,348)"/>
<path d="M0 0 C20.79 0 41.58 0 63 0 C60.47039986 25.50680142 57.67264812 50.97358682 54.75 76.4375 C54.65776154 77.24116249 54.56552307 78.04482498 54.4704895 78.87284088 C53.31748808 88.91567001 52.16020246 98.95800019 51 109 C47.04 109 43.08 109 39 109 C38.83781459 100.41875156 39.46118917 92.10525594 40.390625 83.578125 C40.53838861 82.18841778 40.68573792 80.79866645 40.83270264 79.40887451 C41.14185488 76.49711774 41.45490129 73.58581579 41.77099609 70.67480469 C42.16480182 67.04680077 42.55069862 63.41801493 42.93384552 59.78887177 C45.0101491 40.15130832 47.41255527 20.57756854 50 1 C33.5 1 17 1 0 1 C0 0.67 0 0.34 0 0 Z " fill="#54C4ED" transform="translate(60,132)"/>
<path d="M0 0 C20.79 0 41.58 0 63 0 C69.73827997 26.91301106 69.73827997 26.91301106 72.59765625 38.34179688 C74.55254484 46.15536192 76.50766041 53.96886954 78.46435547 61.78198242 C80.04099771 68.0775439 81.61642144 74.37340954 83.19108582 80.66946602 C83.79354582 83.07745124 84.39642153 85.4853325 84.99971008 87.89311028 C85.84138598 91.25260734 86.68161362 94.61246338 87.52148438 97.97241211 C87.90018929 99.48183884 87.90018929 99.48183884 88.2865448 101.02175903 C88.51372696 101.93186234 88.74090912 102.84196564 88.97497559 103.77964783 C89.17408287 104.57515517 89.37319016 105.37066252 89.57833099 106.19027615 C90 108 90 108 90 109 C85.71 109 81.42 109 77 109 C73.6044899 95.51055296 70.21403386 82.01984683 66.83006287 68.52750015 C65.25866953 62.26282022 63.68552445 55.99859098 62.10839844 49.73535156 C60.58706406 43.69340706 59.07030197 37.65033178 57.55673218 31.60643768 C56.97784859 29.29830627 56.3973057 26.99059037 55.81509399 24.6832962 C55.00126724 21.4569335 54.19329945 18.22915716 53.38671875 15.00097656 C53.14359955 14.04288086 52.90048035 13.08478516 52.6499939 12.09765625 C52.43122589 11.21708557 52.21245789 10.33651489 51.98706055 9.42926025 C51.79532761 8.66601566 51.60359467 7.90277107 51.40605164 7.11639786 C51 5 51 5 51 1 C34.17 1 17.34 1 0 1 C0 0.67 0 0.34 0 0 Z " fill="#54C4ED" transform="translate(389,132)"/>
<path d="M0 0 C15.51 0 31.02 0 47 0 C47 21 47 21 43 28 C36.76904467 32.18588818 30.24247701 31.47831314 23 31.4375 C21.741875 31.45748047 20.48375 31.47746094 19.1875 31.49804688 C8.91521505 31.49260605 8.91521505 31.49260605 5.3125 29.34765625 C-3.27196204 20.63268718 0 13.11315659 0 0 Z " fill="#FCFCFC" transform="translate(186,117)"/>
<path d="M0 0 C0.33 0 0.66 0 1 0 C1.80078125 7.20703125 2.6015625 14.4140625 3.40234375 21.62109375 C3.53277069 22.79433197 3.53277069 22.79433197 3.66583252 23.99127197 C3.84225562 25.5798961 4.01831961 27.16856015 4.19403076 28.75726318 C4.64729752 32.85122848 5.10726031 36.94426361 5.57910156 41.03613281 C5.71845627 42.25648727 5.71845627 42.25648727 5.86062622 43.50149536 C6.03711864 45.04560121 6.21575907 46.58946364 6.39694214 48.13302612 C6.81457275 51.80682814 7 55.28798829 7 59 C-10.82 59 -28.64 59 -47 59 C-43.71750542 55.71750542 -40.86228607 53.0123364 -37.25 50.25 C-20.31706019 36.76867865 -9.46463647 19.19546584 0 0 Z " fill="#FBFBFB" transform="translate(378,182)"/>
<path d="M0 0 C46.2 0 92.4 0 140 0 C140 15.84 140 31.68 140 48 C142.64 48 145.28 48 148 48 C148 53.28 148 58.56 148 64 C145.03 64 142.06 64 139 64 C139 71.26 139 78.52 139 86 C135.04 86 131.08 86 127 86 C127 57.95 127 29.9 127 1 C85.09 1 43.18 1 0 1 C0 0.67 0 0.34 0 0 Z " fill="#08A3DB" transform="translate(326,348)"/>
<path d="M0 0 C4.29 0 8.58 0 13 0 C13 15.51 13 31.02 13 47 C-33.2 47 -79.4 47 -127 47 C-127 46.67 -127 46.34 -127 46 C-85.09 46 -43.18 46 0 46 C0 30.82 0 15.64 0 0 Z " fill="#C6183E" transform="translate(453,450)"/>
<path d="M0 0 C0.99 0.33 1.98 0.66 3 1 C2.34 1 1.68 1 1 1 C1 6.61 1 12.22 1 18 C134.65 18 268.3 18 406 18 C406 13.38 406 8.76 406 4 C416.625 0 416.625 0 420 0 C420 6.27 420 12.54 420 19 C281.4 19 142.8 19 0 19 C0 12.73 0 6.46 0 0 Z " fill="#DD4C6B" transform="translate(46,314)"/>
<path d="M0 0 C4.29 0 8.58 0 13 0 C13.48262787 12.06569664 12.66549889 22.60110233 4.68359375 32.1953125 C-1.24952529 38.5551756 -7.51782932 43.47115408 -16 46 C-18.328125 45.625 -18.328125 45.625 -20 45 C-14.25 40 -14.25 40 -12 40 C-11.73058594 39.43539062 -11.46117187 38.87078125 -11.18359375 38.2890625 C-9.93922718 35.88246577 -8.52275358 33.65641399 -7.0625 31.375 C-1.046895 21.28052136 -0.41296834 11.47767182 0 0 Z " fill="#54C6EF" transform="translate(468,257)"/>
<path d="M0 0 C3.96 0 7.92 0 12 0 C12.74794373 13.09732569 11.59762662 22.90761509 2.8125 33.375 C-3.31828018 39.70979948 -9.99594579 44.60851938 -19 45 C-17.9790625 44.071875 -17.9790625 44.071875 -16.9375 43.125 C-6.97946453 33.08209491 -2.79183553 21.76884143 -1 8 C-0.88785156 7.16210938 -0.77570313 6.32421875 -0.66015625 5.4609375 C-0.42561443 3.64243519 -0.21017075 1.82147983 0 0 Z " fill="#54C7F1" transform="translate(96,257)"/>
<path d="M0 0 C4.95 0 9.9 0 15 0 C15 10.23 15 20.46 15 31 C10.05 31 5.1 31 0 31 C0 20.77 0 10.54 0 0 Z " fill="#020200" transform="translate(264,403)"/>
<path d="M0 0 C4.95 0 9.9 0 15 0 C15 10.23 15 20.46 15 31 C10.05 31 5.1 31 0 31 C0 20.77 0 10.54 0 0 Z " fill="#020200" transform="translate(233,403)"/>
<path d="M0 0 C4.95 0 9.9 0 15 0 C15 4.95 15 9.9 15 15 C10.05 15 5.1 15 0 15 C0 10.05 0 5.1 0 0 Z " fill="#FEFEFF" transform="translate(134,366)"/>
<path d="M0 0 C4.95 0 9.9 0 15 0 C15 4.95 15 9.9 15 15 C10.05 15 5.1 15 0 15 C0 10.05 0 5.1 0 0 Z " fill="#FEFEFF" transform="translate(103,366)"/>
<path d="M0 0 C4.95 0 9.9 0 15 0 C15 4.95 15 9.9 15 15 C10.05 15 5.1 15 0 15 C0 10.05 0 5.1 0 0 Z " fill="#FEFEFF" transform="translate(72,366)"/>
<path d="M0 0 C0 6.27 0 12.54 0 19 C-4.29 19 -8.58 19 -13 19 C-13 14.05 -13 9.1 -13 4 C-3.375 0 -3.375 0 0 0 Z " fill="#D7153F" transform="translate(466,314)"/>
</svg>
